<svg id="Layer_1" data-name="Layer 1" xmlns="http://www.w3.org/2000/svg" viewBox="0 0 116.31 147.71"><defs><style>.cls-1{fill:#fff;}</style></defs><path class="cls-1" d="M157.55,99.91c-.11-.75-.24-1.5-.41-2.24l-.1-.42-.25-.35c-.8-1.08-1.66-2.14-2.57-3.16s-1.79-1.89-2.5-2.57a18.62,18.62,0,0,1-2.44-2.71,16.44,16.44,0,0,1-1.42-2.38c2.66-7.8,2-9.69.73-11.81-.07-.13-.13-.27-.21-.41-.15-.31-.3-.62-.47-1s-.34-.93-.48-1.33a5.08,5.08,0,0,0,.43-.27,5.49,5.49,0,0,0,1.85-2.71c1.41-3.31,6-14.48,7.45-21.52a25.75,25.75,0,0,0-1.28-13c-.73-2.08-2.71-7-5.37-7.58a5,5,0,0,0-3.69.65,8.64,8.64,0,0,1-3.7,1.05,75.86,75.86,0,0,1-9.23-.38,61.47,61.47,0,0,0-9.07-.32,56.94,56.94,0,0,1-11.89.08,16.39,16.39,0,0,0-7.57.93l-1.43-.27a64.23,64.23,0,0,0-18.44,0c-4.38.83-22.8,8.49-27.75,11.54C52.45,43,45.65,58.52,44.89,60.29l0,.05c-4.44,11.24-3.47,16.31-2.53,21.21a31.2,31.2,0,0,1,.7,5.26c.19,8,7.1,19.38,7.39,19.86l.21.34a3.83,3.83,0,0,0-.07,1.43,68,68,0,0,1-.14,11.49,6.79,6.79,0,0,1-1.29,3.56,6.92,6.92,0,0,1-2.59,2.13l-2.5,1.24,1.92,2c1,1.11,6.47,6.84,10.54,10.91s8.22,7.9,12.63,11.69a138.83,138.83,0,0,0,11.56,10.8,139.56,139.56,0,0,0,13.07,9.63L97,174v-5.5a14.9,14.9,0,0,1,.83-3.66,66.5,66.5,0,0,1,8.41-12c1.4-1.66,2.71-3.23,3.93-5,2.31-3.34,4.81-4.16,5.6-4.34,3.93.71,9.68.14,13.91-.49l.27,0a17,17,0,0,0,4.08-.72l.8-.16.65-.14.44-.49c.28-.3.56-.62.83-.94l.25-.29A21.48,21.48,0,0,0,142,129.52a4.43,4.43,0,0,1,.15-.72,3.31,3.31,0,0,0,1.13-1.51l.18-.12a16.83,16.83,0,0,0,2.27-1.8,8.44,8.44,0,0,1,.89-.38c1.71-.57,2-2.43,2-6.66v0c.9-.9,1.51-2.72.91-6.34a8.08,8.08,0,0,1,.18-4.13,1.16,1.16,0,0,0,.06-.15l0-.1a.63.63,0,0,1,.12-.1c.42-.06.91-.11,1.37-.15a10.12,10.12,0,0,0,3.33-.69l.05,0a3.26,3.26,0,0,0,2.42-1.19C158.13,104.15,157.92,102.65,157.55,99.91Zm-9.38-56.84a4.41,4.41,0,0,1,.56.93A9.18,9.18,0,0,0,148.17,43.07Zm-5.26-3.76c2.55-2.37,1.56-1.21,4.58,2.88a9.55,9.55,0,0,0-1-1,9.68,9.68,0,0,0-3.57-1.88,8.33,8.33,0,0,1-2.26,2.07,8.55,8.55,0,0,1-3.19,1.13c-1.6.26-2.79.45-3.91.55h0C139.7,40.89,140.18,41.85,142.91,39.31Z" transform="translate(-41.54 -26.29)"/><path class="cls-1" d="M143.28,37.24c.18-.21,3.58-4.37,6.77-3.5,2.94.8,4.13,5.31,4.13,7.83s-5.16,19.2-5.59,21c0,0,.84-7.12.92-12.22,0-2.15-.13-3.23-.51-3.9-2.56-4.56-13.36-3-26.39-1.1A107.1,107.1,0,0,0,108.71,48,88.41,88.41,0,0,0,81.09,61.3c-.1-.15,9.07-9,24-13.35,7.37-2.14,10.34-1.5,20.11-4.13A110.16,110.16,0,0,0,143.28,37.24Z" transform="translate(-41.54 -26.29)"/></svg>